<?xml version="1.0" standalone="no"?>
<!DOCTYPE svg PUBLIC "-//W3C//DTD SVG 20010904//EN"
 "http://www.w3.org/TR/2001/REC-SVG-20010904/DTD/svg10.dtd">
<svg version="1.0" xmlns="http://www.w3.org/2000/svg"
 width="360.000000pt" height="230.000000pt" viewBox="0 0 360.000000 230.000000"
 preserveAspectRatio="xMidYMid meet">
<metadata>
Created by potrace 1.15, written by Peter Selinger 2001-2017
</metadata>
<g transform="translate(0.000000,230.000000) scale(0.100000,-0.100000)"
fill="#000000" stroke="none">
<path d="M1748 2008 l-48 -21 0 -511 0 -512 46 -22 c26 -13 48 -21 50 -19 2 2
3 252 2 555 l-3 551 -47 -21z"/>
<path d="M1573 1925 l-33 -14 0 -435 0 -436 40 -20 c21 -11 41 -20 42 -20 2 0
2 211 0 470 -1 258 -6 470 -10 470 -4 -1 -22 -7 -39 -15z"/>
<path d="M1448 1864 l-28 -15 0 -378 0 -379 30 -11 30 -10 0 405 c0 222 -1
404 -2 404 -2 -1 -15 -8 -30 -16z"/>
<path d="M1328 1809 c-17 -9 -18 -36 -18 -334 l0 -324 30 -16 30 -16 0 351 c0
367 0 364 -42 339z"/>
<path d="M1386 738 c-32 -75 -66 -162 -66 -165 0 -2 6 -3 14 -3 7 0 19 14 26
30 11 27 17 30 54 30 37 0 43 -3 53 -30 9 -24 17 -30 42 -30 31 0 31 0 31 54
0 37 5 60 16 71 28 27 39 12 42 -58 2 -51 6 -67 17 -67 12 0 15 14 15 59 0 61
16 89 45 77 11 -4 15 -22 15 -71 0 -51 3 -65 15 -65 12 0 15 14 15 64 0 39 -5
67 -12 74 -7 5 -55 10 -105 10 l-93 -1 -1 -71 0 -71 -38 95 c-43 106 -63 122
-85 68z"/>
<path d="M1752 708 c-17 -17 -15 -38 3 -38 8 0 15 6 15 14 0 16 34 31 50 21 5
-3 10 -15 10 -26 0 -14 -7 -19 -26 -19 -51 0 -83 -34 -64 -70 9 -16 24 -18
142 -17 73 0 109 2 80 4 l-52 4 45 58 c25 31 45 60 45 64 0 4 -28 6 -62 5 -59
-1 -60 -1 -19 -7 l43 -6 -42 -52 c-23 -29 -46 -53 -51 -53 -5 0 -9 24 -9 53 0
29 -5 58 -12 65 -16 16 -80 16 -96 0z"/>
<path d="M2030 700 c-12 -12 -20 -33 -20 -55 0 -45 29 -75 73 -75 43 0 71 30
71 75 0 19 -8 43 -19 55 -24 26 -78 27 -105 0z"/>
<path d="M1765 456 c-13 -13 -27 -40 -30 -60 -15 -79 26 -136 98 -136 47 0 78
23 92 68 6 19 3 22 -24 22 -20 0 -31 -5 -31 -14 0 -21 -27 -38 -49 -31 -42 13
-46 113 -5 129 18 7 54 -10 54 -24 0 -6 11 -10 25 -10 32 0 33 29 2 58 -33 31
-100 30 -132 -2z"/>
<path d="M1560 370 l0 -100 80 0 c73 0 80 2 80 20 0 18 -7 20 -55 20 -52 0
-55 1 -55 25 0 23 3 25 50 25 38 0 50 4 50 15 0 11 -12 15 -50 15 -43 0 -50 3
-50 20 0 18 7 20 55 20 48 0 55 2 55 20 0 18 -7 20 -80 20 l-80 0 0 -100z"/>
<path d="M1957 452 c-10 -10 -17 -28 -17 -40 0 -31 34 -28 49 4 12 28 34 28
39 0 3 -12 -15 -36 -47 -65 -73 -68 -69 -81 24 -81 60 0 75 3 75 15 0 11 -11
15 -42 15 l-43 0 43 36 c34 29 42 42 42 68 0 19 -8 40 -18 49 -25 23 -85 22
-105 -1z"/>
</g>
</svg>
