<?xml version="1.0" standalone="no"?>
<!DOCTYPE svg PUBLIC "-//W3C//DTD SVG 20010904//EN"
 "http://www.w3.org/TR/2001/REC-SVG-20010904/DTD/svg10.dtd">
<svg version="1.0" xmlns="http://www.w3.org/2000/svg"
 width="768.000000pt" height="460.000000pt" viewBox="0 0 768.000000 460.000000"
 preserveAspectRatio="xMidYMid meet">
<metadata>
Created by potrace 1.15, written by Peter Selinger 2001-2017
</metadata>
<g transform="translate(0.000000,460.000000) scale(0.100000,-0.100000)"
fill="#000000" stroke="none">
<path d="M6378 4570 c-165 -19 -289 -63 -415 -146 -122 -81 -206 -187 -255
-320 -30 -81 -32 -282 -4 -364 66 -193 180 -318 368 -404 40 -19 183 -68 318
-111 346 -107 431 -152 483 -249 29 -56 30 -163 1 -226 -42 -91 -139 -157
-272 -186 -88 -19 -307 -19 -424 0 -110 18 -235 53 -336 95 -103 43 -133 47
-162 23 -21 -17 -25 -30 -28 -96 -7 -126 3 -165 53 -212 66 -64 259 -130 480
-165 107 -17 371 -17 465 0 402 72 655 317 676 654 13 211 -70 398 -230 511
-94 67 -183 105 -438 186 -394 124 -473 165 -524 275 -46 99 -28 202 51 281
61 62 137 90 277 105 174 18 368 -12 555 -85 164 -64 183 -53 183 111 0 98 -3
114 -23 144 -76 115 -511 212 -799 179z"/>
<path d="M1090 4559 c-215 -28 -495 -124 -560 -194 -23 -24 -25 -36 -28 -127
-5 -133 2 -166 35 -174 32 -8 75 3 236 60 182 65 303 88 462 88 249 1 392 -59
460 -193 42 -81 56 -155 62 -330 l6 -167 -114 23 c-183 37 -294 49 -454 48
-162 -1 -255 -15 -377 -59 -224 -81 -385 -249 -444 -465 -25 -88 -25 -299 -1
-389 70 -265 268 -433 554 -471 295 -39 599 65 806 276 l55 55 42 -74 c52 -95
110 -173 147 -197 51 -34 89 -25 198 47 55 37 108 76 117 88 25 31 22 79 -10
144 -41 81 -70 159 -83 217 -6 30 -14 277 -18 620 -7 541 -9 574 -30 650 -82
305 -275 470 -608 520 -105 16 -345 18 -453 4z m480 -1295 c58 -9 124 -20 148
-26 l42 -10 0 -107 c0 -191 -38 -301 -139 -401 -112 -111 -268 -171 -451 -173
-128 -2 -188 16 -255 75 -145 128 -149 406 -8 543 118 115 329 146 663 99z"/>
<path d="M2436 4497 c-16 -12 -18 -22 -13 -73 6 -58 590 -1998 626 -2079 35
-77 42 -80 231 -83 194 -4 226 4 253 61 9 19 103 397 209 839 105 441 194 806
197 810 3 4 94 -358 201 -804 107 -446 202 -827 211 -847 24 -55 48 -61 237
-61 178 0 201 5 233 50 10 14 162 488 339 1055 333 1071 344 1112 301 1135
-29 15 -330 13 -361 -3 -14 -7 -35 -30 -47 -52 -12 -22 -118 -414 -238 -880
-119 -462 -217 -841 -219 -842 -1 -1 -93 383 -204 855 -131 556 -209 866 -221
882 -32 45 -56 50 -224 50 -185 0 -208 -7 -237 -73 -10 -23 -105 -412 -211
-864 -106 -453 -196 -820 -200 -815 -3 4 -99 375 -213 824 -114 449 -213 832
-220 850 -30 70 -39 73 -235 76 -139 2 -180 0 -195 -11z"/>
</g>
</svg>
