<?xml version="1.0" standalone="no"?>
<!DOCTYPE svg PUBLIC "-//W3C//DTD SVG 20010904//EN"
 "http://www.w3.org/TR/2001/REC-SVG-20010904/DTD/svg10.dtd">
<svg version="1.0" xmlns="http://www.w3.org/2000/svg"
 width="320.000000pt" height="320.000000pt" viewBox="0 0 320.000000 320.000000"
 preserveAspectRatio="xMidYMid meet">
<metadata>
Created by potrace 1.15, written by Peter Selinger 2001-2017
</metadata>
<g transform="translate(0.000000,320.000000) scale(0.100000,-0.100000)"
fill="#000000" stroke="none">
<path d="M449 2505 c-79 -20 -165 -60 -178 -83 -14 -26 -14 -127 -1 -153 15
-27 60 -25 151 7 50 17 98 26 149 27 122 3 160 -24 175 -123 l7 -45 -154 0
c-148 0 -155 -1 -216 -29 -75 -35 -143 -105 -166 -173 -18 -53 -21 -150 -6
-205 18 -62 71 -128 130 -162 47 -26 66 -31 146 -34 108 -5 178 12 250 61 l49
33 36 -40 c30 -33 42 -40 72 -39 55 2 147 70 147 108 0 13 -10 44 -22 71 -21
45 -23 68 -29 304 -5 235 -7 259 -28 305 -24 56 -80 118 -126 142 -81 43 -268
56 -386 28z m290 -574 c10 -6 12 -19 6 -47 -15 -84 -51 -119 -144 -140 -99
-23 -157 17 -147 101 3 28 14 48 36 68 29 26 35 27 133 27 56 0 108 -4 116 -9z"/>
<path d="M2505 2507 c-102 -34 -179 -98 -213 -176 -19 -45 -21 -156 -2 -201
39 -98 103 -146 268 -200 154 -50 180 -64 188 -96 24 -94 -169 -130 -339 -63
-100 40 -147 17 -147 -71 0 -61 17 -90 70 -119 53 -30 193 -61 274 -61 64 0
172 23 221 47 44 22 113 92 137 138 26 50 35 158 18 211 -18 56 -56 109 -101
138 -21 15 -99 46 -171 71 -153 52 -182 69 -186 113 -3 24 3 34 24 49 43 28
179 25 268 -6 62 -22 71 -23 95 -10 23 13 26 21 29 82 3 63 1 70 -26 96 -16
16 -53 37 -83 46 -72 23 -269 30 -324 12z"/>
<path d="M1028 2490 c-31 -19 -30 -61 6 -180 91 -306 208 -688 218 -713 15
-40 36 -47 130 -47 132 0 120 -19 204 333 25 109 48 196 50 194 2 -1 28 -105
59 -231 57 -235 73 -279 100 -290 9 -3 55 -6 101 -6 69 0 87 3 103 19 20 20
42 85 196 581 88 284 94 319 55 340 -10 6 -52 10 -92 10 -82 0 -108 -12 -126
-57 -10 -24 -131 -482 -133 -501 -2 -22 -26 68 -70 258 -27 118 -56 230 -64
248 -19 41 -48 52 -135 52 -112 0 -111 1 -181 -294 -32 -137 -60 -253 -62
-259 -1 -5 -27 86 -57 204 -90 362 -82 349 -209 349 -42 0 -84 -5 -93 -10z"/>
<path d="M2752 1410 c-117 -22 -246 -83 -262 -126 -14 -35 3 -71 37 -78 15 -4
62 -2 103 4 84 11 214 13 248 4 17 -5 22 -14 22 -40 0 -37 -39 -167 -77 -258
-27 -65 -25 -99 8 -116 35 -19 76 -2 129 57 92 101 160 275 160 412 0 62 -3
75 -24 96 -13 13 -41 28 -62 35 -53 15 -218 21 -282 10z m248 -51 c28 -6 57
-17 65 -26 32 -32 4 -194 -55 -318 -32 -67 -122 -175 -146 -175 -20 0 -19 4
25 121 45 120 67 214 58 251 -13 49 -89 60 -306 45 -128 -9 -137 -2 -60 45 93
58 290 85 419 57z"/>
<path d="M96 1354 c-30 -30 -20 -76 27 -120 205 -196 527 -379 817 -468 220
-66 296 -77 577 -83 286 -6 387 2 555 42 275 65 471 146 665 273 99 65 113 82
113 135 0 70 -57 89 -156 52 -299 -114 -470 -158 -752 -195 -448 -58 -955 13
-1407 197 -101 41 -293 137 -340 169 -26 19 -80 18 -99 -2z m186 -98 c379
-197 745 -298 1185 -326 364 -23 789 41 1128 170 170 64 182 67 202 47 22 -22
12 -40 -50 -87 -191 -145 -555 -281 -865 -324 -145 -20 -450 -21 -590 -1 -391
56 -772 224 -1071 473 -47 39 -88 78 -93 86 -8 14 -4 36 7 36 2 0 68 -33 147
-74z"/>
</g>
</svg>
