<?xml version="1.0" standalone="no"?>
<!DOCTYPE svg PUBLIC "-//W3C//DTD SVG 20010904//EN"
 "http://www.w3.org/TR/2001/REC-SVG-20010904/DTD/svg10.dtd">
<svg version="1.0" xmlns="http://www.w3.org/2000/svg"
 width="524.000000pt" height="512.000000pt" viewBox="0 0 524.000000 512.000000"
 preserveAspectRatio="xMidYMid meet">
<metadata>
Created by potrace 1.15, written by Peter Selinger 2001-2017
</metadata>
<g transform="translate(0.000000,512.000000) scale(0.100000,-0.100000)"
fill="#000000" stroke="none">
<path d="M2330 5109 c-229 -28 -473 -88 -666 -165 -918 -362 -1553 -1196
-1655 -2172 -17 -167 -7 -544 20 -698 25 -148 68 -316 116 -454 45 -131 162
-374 240 -500 189 -305 477 -605 765 -797 260 -173 618 -334 711 -318 50 9 96
47 107 88 5 18 7 146 4 285 l-5 254 -31 -6 c-232 -48 -449 -27 -611 57 -72 38
-181 145 -212 207 -12 25 -40 83 -62 130 -59 126 -130 213 -240 295 -109 82
-127 108 -92 136 17 14 39 19 85 18 66 -1 138 -21 118 -33 -17 -11 -15 -53 4
-60 46 -18 79 8 53 41 -17 20 -8 16 60 -30 41 -28 43 -31 23 -38 -28 -10 -29
-49 -3 -73 25 -23 54 -17 61 12 l5 24 22 -24 c11 -13 45 -59 74 -103 59 -89
130 -163 189 -196 38 -22 52 -39 30 -39 -19 0 -11 -59 9 -70 48 -25 111 -1 97
36 -5 14 -1 16 25 10 17 -3 52 -6 78 -7 25 0 39 -3 31 -6 -16 -6 -40 -32 -40
-44 0 -18 34 -39 65 -39 29 0 65 20 65 36 0 17 -23 44 -38 45 -9 0 15 7 53 15
39 7 97 23 131 35 l61 22 17 74 c22 90 72 194 120 247 20 21 36 40 36 42 0 2
-13 4 -29 4 -55 0 -297 49 -388 79 -451 147 -697 451 -764 941 -18 135 -16
387 4 477 35 156 97 294 180 402 23 29 48 61 55 70 10 14 8 32 -8 97 -43 166
-34 368 24 541 l23 68 63 3 c121 6 320 -68 535 -197 l119 -71 110 25 c355 79
737 79 1092 -1 l112 -24 117 71 c218 132 380 193 514 194 l85 0 23 -74 c58
-185 66 -370 23 -535 -16 -65 -18 -83 -8 -96 7 -10 32 -42 55 -73 155 -203
218 -450 193 -757 -18 -230 -57 -386 -135 -545 -158 -322 -483 -520 -964 -585
-50 -7 -91 -15 -91 -18 0 -3 18 -24 39 -47 50 -54 86 -126 114 -223 20 -73 22
-100 24 -507 1 -237 2 -443 2 -458 1 -40 56 -93 105 -103 91 -17 445 139 701
309 301 200 586 495 780 807 150 243 279 567 334 846 41 204 51 311 51 536 0
448 -95 835 -300 1225 -330 629 -927 1111 -1609 1299 -243 67 -385 86 -671 90
-140 1 -289 -2 -330 -7z"/>
</g>
</svg>
