<?xml version="1.0" standalone="no"?>
<!DOCTYPE svg PUBLIC "-//W3C//DTD SVG 20010904//EN"
 "http://www.w3.org/TR/2001/REC-SVG-20010904/DTD/svg10.dtd">
<svg version="1.0" xmlns="http://www.w3.org/2000/svg"
 width="1667.000000pt" height="528.000000pt" viewBox="0 0 1667.000000 528.000000"
 preserveAspectRatio="xMidYMid meet">
<metadata>
Created by potrace 1.15, written by Peter Selinger 2001-2017
</metadata>
<g transform="translate(0.000000,528.000000) scale(0.100000,-0.100000)"
fill="#000000" stroke="none">
<path d="M2840 5255 c-232 -44 -445 -131 -566 -230 -35 -29 -97 -93 -139 -143
-72 -87 -77 -90 -125 -97 -48 -7 -108 -40 -156 -89 -141 -139 -140 -138 -314
-166 -36 -6 -107 -24 -159 -40 -52 -17 -98 -30 -102 -30 -23 0 -213 -98 -289
-149 -46 -31 -123 -94 -171 -141 -83 -81 -99 -102 -180 -230 -19 -31 -51 -70
-70 -87 -70 -65 -92 -83 -100 -83 -4 0 -16 -3 -26 -7 -15 -5 -16 -4 -7 8 13
16 42 103 46 139 3 24 4 23 26 -13 12 -21 28 -37 35 -34 33 11 30 187 -4 231
-18 24 -19 28 -6 58 29 65 29 68 -2 68 -28 0 -122 -45 -174 -84 -72 -53 -137
-129 -157 -182 -11 -30 -20 -65 -20 -79 0 -30 36 -115 49 -115 5 0 15 -24 21
-54 22 -108 98 -176 197 -176 l38 0 0 -172 c0 -95 2 -204 5 -243 7 -111 -21
-167 -144 -289 l-98 -98 4 -72 c5 -97 49 -186 131 -270 103 -105 219 -166 314
-166 24 0 43 -1 43 -3 0 -2 -10 -23 -21 -47 -12 -25 -24 -72 -27 -105 -4 -55
-2 -63 24 -94 28 -33 133 -91 165 -91 9 0 36 -7 59 -15 86 -30 293 -67 346
-61 125 14 164 59 173 199 7 94 20 128 86 222 16 23 20 45 20 103 l-1 74 29
-6 c16 -3 73 -6 126 -6 l96 0 -37 -30 c-41 -34 -62 -84 -52 -126 24 -105 38
-133 132 -276 129 -197 239 -250 384 -185 63 28 91 52 131 113 16 23 47 56 70
74 23 18 51 41 62 52 11 10 34 29 51 43 31 25 32 25 70 8 33 -15 72 -18 249
-18 202 0 211 1 247 23 72 45 101 168 59 250 -15 30 -20 66 -23 187 -5 161 -2
151 -94 368 -13 32 -24 60 -24 63 0 13 23 -3 85 -61 97 -92 149 -125 212 -136
69 -13 177 2 215 31 15 11 31 20 36 20 5 0 30 21 56 47 52 51 89 115 107 187
8 33 16 46 25 42 33 -13 225 -17 294 -7 85 12 218 51 252 75 12 9 27 16 32 16
11 0 2 -55 -28 -185 -13 -55 -36 -156 -51 -225 -14 -69 -37 -170 -50 -225 -13
-55 -36 -154 -50 -220 -15 -66 -37 -165 -50 -220 -13 -55 -26 -119 -30 -143
l-7 -42 485 0 484 0 27 118 c15 64 36 151 46 192 11 41 27 109 36 150 29 140
52 245 74 335 47 195 60 252 69 305 6 30 19 87 29 125 l18 70 172 3 c151 2
173 0 179 -14 3 -8 -2 -50 -11 -92 -9 -43 -23 -111 -31 -152 -9 -41 -27 -122
-40 -180 -46 -200 -97 -424 -150 -665 -14 -66 -30 -135 -35 -153 -6 -23 -5
-35 3 -38 7 -2 1484 -3 3282 -2 3142 3 3272 4 3325 21 30 10 73 27 96 37 l40
18 71 -34 c39 -18 97 -37 129 -42 34 -6 381 -7 830 -4 l772 5 -14 -74 c-15
-77 -51 -243 -85 -386 -10 -45 -19 -85 -19 -88 0 -3 220 -5 489 -5 l490 0 11
58 c6 31 22 107 36 167 58 257 66 291 71 308 4 17 30 18 476 15 l472 -3 78 27
c276 97 409 265 473 598 16 86 58 278 82 382 11 46 32 139 47 208 14 69 36
167 47 218 30 134 23 245 -20 327 -17 33 -39 69 -49 80 -33 38 -109 83 -169
101 -56 18 -155 19 -1809 22 -1738 3 -1751 3 -1831 -18 -45 -11 -103 -31 -130
-45 -26 -13 -52 -21 -58 -18 -6 4 -23 14 -37 24 -14 10 -61 27 -104 38 -76 20
-103 21 -862 21 -538 0 -783 3 -783 10 0 6 6 39 14 73 8 34 26 116 41 182 14
66 35 154 46 196 10 42 19 81 19 88 0 8 -132 11 -489 11 l-490 0 -11 -57 c-6
-32 -22 -107 -36 -168 -14 -60 -34 -150 -46 -200 -11 -49 -22 -98 -25 -107 -4
-16 -42 -17 -496 -20 -485 -4 -493 -4 -551 -27 -33 -12 -80 -33 -105 -47 l-45
-24 -36 22 c-19 11 -62 30 -95 42 -60 21 -69 21 -1523 24 l-1464 2 7 43 c4 23
13 65 21 92 8 28 20 82 28 120 7 39 23 106 34 150 11 44 23 97 27 118 l6 37
-479 0 -480 0 -16 51 c-23 70 -61 150 -84 175 -31 36 -117 74 -166 74 -39 0
-49 -5 -90 -47 -25 -25 -46 -49 -46 -53 0 -19 -67 -88 -108 -112 -57 -34 -59
-34 -67 -5 -12 38 -111 180 -152 218 -22 20 -57 48 -79 62 -117 77 -227 162
-300 232 -213 202 -479 295 -714 250z m318 -111 c98 -32 89 -29 143 -61 82
-50 104 -67 243 -182 l137 -115 -28 -12 c-28 -12 -27 -12 17 -13 25 -1 56 -8
70 -16 14 -8 34 -18 45 -24 38 -18 105 -83 138 -134 54 -83 80 -128 76 -132
-2 -2 -24 2 -47 8 -45 12 -42 13 -172 -38 l-35 -14 30 -1 c30 0 31 -2 27 -37
-4 -35 -4 -36 12 -20 20 19 39 21 67 7 34 -19 23 -44 -26 -59 -70 -21 -67 -34
6 -27 35 3 80 3 99 -2 30 -7 35 -12 38 -41 3 -31 2 -33 -20 -25 -47 17 -143 8
-188 -17 -46 -26 -63 -52 -95 -146 -24 -71 -17 -75 14 -8 29 61 85 121 120
128 16 3 42 9 57 12 l29 6 -27 -15 c-34 -20 -64 -99 -74 -194 -3 -40 -4 -72
-1 -72 4 0 19 39 34 87 22 73 34 95 71 130 26 26 53 43 67 43 21 0 24 -6 31
-57 4 -36 1 -107 -8 -188 -9 -71 -15 -132 -13 -133 2 -2 15 31 28 75 39 121
50 219 42 367 l-6 131 34 22 c19 12 54 27 78 34 45 14 86 50 172 152 57 67 85
73 132 29 82 -78 148 -366 148 -652 1 -146 -16 -253 -55 -355 -50 -132 -82
-185 -163 -269 -130 -135 -287 -184 -530 -165 -96 8 -245 41 -350 80 -27 9
-61 21 -75 25 -14 3 -36 14 -50 24 -14 9 -35 22 -47 29 -22 11 -22 11 -16 -53
4 -47 1 -76 -11 -112 -10 -27 -20 -86 -23 -131 l-6 -82 33 -29 c40 -37 89 -47
138 -30 l37 12 -64 8 c-36 4 -71 14 -80 22 -21 22 -10 27 30 16 105 -30 219
29 219 114 0 14 5 36 12 50 9 21 16 24 37 19 14 -3 28 -7 30 -9 2 -2 -7 -36
-20 -76 -32 -95 -96 -168 -170 -191 -112 -36 -175 -17 -300 90 -50 43 -105 90
-122 104 -18 14 -70 41 -117 59 -47 17 -92 38 -101 46 -8 8 -20 14 -25 14 -5
0 -26 11 -47 25 -20 14 -37 22 -37 17 0 -18 116 -114 163 -135 l49 -22 -6 -61
c-6 -61 -33 -158 -83 -304 -47 -135 -79 -194 -215 -397 -15 -22 -39 -50 -55
-61 -53 -40 -75 -57 -121 -95 -78 -64 -99 -81 -141 -111 -23 -17 -41 -35 -41
-40 -1 -16 -55 -76 -87 -97 -38 -26 -100 -24 -146 4 -75 46 -205 238 -222 330
-13 69 -1 87 105 145 14 7 32 19 40 26 8 7 29 20 47 28 29 14 32 14 50 -3 17
-18 18 -15 18 111 0 138 -5 142 -40 39 -19 -57 -18 -56 -235 -65 -133 -5 -291
4 -306 18 -2 3 -9 40 -16 84 l-13 79 -5 -175 c-6 -176 -11 -200 -51 -260 -56
-83 -76 -136 -82 -214 -6 -85 -9 -89 -70 -108 -31 -9 -56 -8 -150 11 -147 29
-265 67 -302 97 -26 20 -30 30 -28 66 1 24 10 64 21 89 11 25 27 95 37 155
l17 109 -66 110 c-36 60 -66 114 -66 119 0 5 -6 17 -13 25 -34 41 -120 282
-148 418 -16 79 -23 144 -23 243 0 119 3 147 28 235 29 103 85 233 139 320 53
86 164 210 233 261 36 27 74 56 83 64 47 44 171 104 301 146 70 23 271 65 278
59 2 -2 -5 -12 -15 -22 -10 -11 -38 -43 -63 -72 -25 -29 -54 -63 -66 -75 -27
-28 -125 -153 -149 -191 -41 -64 -119 -218 -134 -264 -23 -69 -9 -163 30 -207
11 -11 19 -24 19 -29 0 -5 11 -20 24 -34 40 -43 116 -163 127 -201 9 -30 7
-48 -10 -104 -34 -109 -31 -118 49 -196 39 -38 96 -83 126 -101 48 -27 69 -32
143 -37 84 -4 91 -3 162 29 41 19 123 61 183 93 120 65 273 126 316 126 53 0
90 12 90 29 0 9 4 21 9 27 17 17 38 108 52 217 14 121 5 258 -32 440 -22 108
-38 259 -39 350 0 73 -14 66 -30 -15 -20 -101 -16 -287 9 -411 15 -80 21 -145
21 -250 0 -141 -6 -179 -45 -273 -16 -41 -18 -42 -73 -49 -76 -9 -192 -56
-332 -133 -194 -107 -243 -119 -357 -86 -41 12 -70 30 -119 76 -63 60 -64 61
-64 114 0 30 4 62 10 72 5 9 20 40 33 67 25 53 70 137 105 195 12 19 33 55 47
80 14 25 32 55 41 68 9 12 14 22 10 22 -7 0 -140 -160 -197 -237 l-42 -56 -18
39 c-11 21 -44 71 -74 109 -60 77 -105 160 -105 193 0 22 46 148 61 167 4 6
24 42 44 81 22 43 75 114 138 185 56 64 122 139 147 168 149 173 292 321 338
347 29 17 74 30 134 39 86 13 218 38 282 53 16 4 -31 5 -104 3 l-133 -3 21 29
c35 50 125 138 175 171 103 69 241 123 462 182 17 4 79 8 138 9 92 1 121 -3
185 -25z m2298 -896 c-8 -40 -48 -225 -81 -368 -13 -58 -26 -120 -29 -137 l-5
-33 518 0 c559 0 553 0 639 -54 22 -14 56 -47 74 -73 33 -47 33 -49 33 -158
-1 -80 -6 -130 -22 -185 -11 -41 -24 -93 -27 -115 -4 -22 -18 -89 -32 -150
-14 -60 -34 -148 -44 -195 -11 -47 -33 -146 -50 -220 -16 -74 -41 -184 -55
-245 -13 -60 -33 -146 -43 -190 l-18 -80 -233 -3 -233 -2 7 42 c3 24 17 93 31
153 14 61 37 162 51 225 14 63 34 151 44 195 10 44 23 105 28 135 4 30 17 91
28 135 62 245 64 276 22 329 -44 56 -47 56 -442 56 l-363 0 -22 -87 c-12 -49
-24 -104 -27 -123 -8 -41 -45 -210 -80 -360 -26 -112 -62 -270 -100 -440 -13
-58 -31 -140 -41 -182 l-17 -78 -234 0 -234 0 6 38 c4 20 17 82 30 137 29 123
66 290 101 455 14 69 36 170 49 225 13 55 35 152 49 215 29 136 52 240 66 295
5 22 21 94 35 160 33 155 74 335 91 405 7 30 22 100 33 155 11 55 24 112 30
128 l11 27 231 0 231 0 -6 -32z m5290 10 c-8 -27 -49 -209 -72 -318 -24 -119
-64 -298 -84 -385 -10 -44 -33 -145 -51 -225 -17 -80 -42 -190 -54 -245 -13
-55 -35 -154 -49 -220 -15 -66 -38 -172 -52 -235 -14 -63 -36 -162 -49 -220
-13 -58 -35 -154 -49 -215 -14 -60 -26 -120 -26 -132 l0 -23 -773 0 -774 0
-64 32 c-51 27 -71 44 -103 91 -37 56 -39 62 -40 140 0 78 6 114 75 392 5 22
16 74 25 115 14 72 32 149 87 395 14 61 28 127 32 147 7 43 38 113 77 174 34
53 107 113 188 155 l65 34 552 3 551 3 7 42 c4 23 15 76 25 117 11 41 26 111
36 155 13 65 50 232 53 243 1 1 107 2 237 2 l236 0 -6 -22z m-10311 -179 c-14
-25 -34 -157 -35 -221 0 -9 -12 -30 -26 -47 -23 -28 -25 -35 -15 -63 14 -40
39 -68 61 -68 25 0 112 39 137 62 l22 20 -20 -63 c-11 -35 -21 -63 -22 -64
-69 -31 -146 -35 -172 -9 -22 22 -55 89 -55 112 0 11 -11 36 -25 56 -33 48
-32 97 1 155 25 43 139 161 156 161 5 0 1 -14 -7 -31z m7991 -368 c49 -9 119
-53 154 -95 13 -16 32 -60 42 -98 16 -63 16 -76 3 -156 -15 -85 -45 -222 -87
-392 -11 -47 -25 -107 -30 -135 -5 -27 -19 -95 -32 -150 -22 -96 -31 -133 -95
-420 -17 -71 -33 -151 -36 -177 l-7 -48 -822 0 -821 0 -60 29 c-69 33 -114 83
-138 155 -22 65 -21 89 9 231 14 66 34 162 45 214 11 51 33 120 49 152 41 80
129 166 214 209 l70 35 603 3 602 3 12 42 c23 87 -9 172 -75 196 -19 7 -243
11 -678 11 l-650 0 7 43 c3 23 17 87 30 142 13 55 29 126 36 158 l12 57 801 0
c441 -1 820 -4 842 -9z m3991 -29 c54 -28 110 -78 127 -111 8 -14 19 -51 25
-82 13 -63 7 -118 -34 -294 -24 -105 -56 -249 -100 -450 -15 -66 -38 -165 -51
-220 -13 -55 -24 -111 -24 -124 0 -38 -50 -142 -94 -196 -58 -71 -99 -105
-170 -140 l-61 -30 -693 -3 c-465 -2 -705 1 -732 8 -93 25 -176 128 -187 233
-3 33 1 75 12 117 9 36 23 97 30 135 7 39 22 106 33 150 11 44 32 136 46 205
115 536 125 569 202 661 60 72 141 122 264 163 8 2 319 4 690 3 l675 -2 42
-23z m2031 -5 c68 -36 106 -78 132 -145 25 -66 25 -116 1 -218 -10 -43 -31
-135 -45 -204 -15 -69 -36 -161 -46 -205 -10 -44 -33 -145 -50 -225 -55 -262
-82 -364 -111 -416 -41 -73 -130 -157 -208 -196 l-66 -33 -715 0 -715 0 -52
30 c-29 17 -53 33 -53 37 0 3 -11 20 -25 37 -28 33 -56 140 -48 187 10 64 24
131 98 464 13 58 35 159 50 225 15 66 38 166 51 222 13 56 24 110 24 120 0 10
14 47 30 82 37 78 146 189 217 221 107 49 97 49 808 47 l670 -2 53 -28z m1917
1 c55 -29 90 -63 125 -122 33 -56 33 -165 -2 -306 -14 -58 -38 -161 -53 -230
-15 -69 -35 -159 -45 -200 -10 -41 -21 -95 -25 -120 -4 -25 -18 -85 -31 -135
-13 -49 -24 -101 -24 -115 0 -14 -14 -63 -30 -109 -44 -125 -128 -219 -245
-277 l-60 -29 -555 -5 -555 -5 -3 -25 c-2 -14 -14 -70 -26 -125 -45 -191 -75
-330 -81 -367 l-6 -37 -239 -3 c-132 -2 -240 -2 -240 -1 0 1 11 46 24 100 13
54 36 154 51 223 14 69 37 170 50 225 12 55 35 156 49 225 15 69 38 170 50
225 13 55 36 156 51 225 33 158 70 322 95 425 11 44 24 105 29 135 5 30 18 93
30 140 11 47 33 138 47 203 l27 117 771 -2 771 -3 50 -27z m-15765 -870 c0
-19 100 -224 132 -270 10 -14 18 -29 18 -34 0 -4 12 -22 26 -41 31 -40 27 -73
-14 -115 -31 -33 -71 -36 -134 -11 -50 19 -80 40 -154 107 -65 59 -109 133
-118 198 l-7 48 88 92 c49 51 95 105 103 121 l14 28 23 -57 c13 -32 23 -61 23
-66z m2413 -45 c9 -27 23 -68 32 -93 11 -29 20 -99 26 -199 5 -86 14 -160 20
-167 7 -9 10 -38 7 -75 -7 -91 -6 -91 -235 -87 -105 2 -195 6 -198 10 -4 4 12
31 37 60 41 50 88 117 114 163 60 109 80 155 111 245 42 128 65 190 69 190 1
0 9 -21 17 -47z"/>
<path d="M2250 4593 c-63 -8 -125 -16 -138 -19 -31 -6 -88 -66 -117 -123 -48
-95 -123 -317 -111 -329 3 -2 8 4 12 14 14 41 76 176 102 221 45 80 64 107 92
130 l28 23 -18 -59 c-12 -37 -16 -73 -13 -99 6 -41 23 -49 23 -11 0 23 31 84
77 150 25 36 44 51 80 63 25 9 54 16 62 16 9 0 34 9 56 19 39 19 40 19 10 19
-16 -1 -82 -7 -145 -15z"/>
<path d="M3256 4328 c-50 -12 -91 -29 -111 -46 -29 -24 -155 -168 -155 -177 0
-7 59 26 70 40 19 23 25 18 38 -30 7 -25 16 -45 21 -45 5 0 7 8 4 18 -6 23 33
72 57 72 10 0 28 -9 41 -19 l24 -19 -47 -49 c-25 -28 -54 -65 -63 -84 l-17
-34 29 28 c27 27 78 72 105 92 33 26 138 84 191 106 81 32 56 36 -52 8 -9 -3
-18 8 -24 29 -6 19 -25 45 -44 59 l-34 26 31 18 c28 18 39 30 23 28 -5 -1 -44
-10 -87 -21z"/>
<path d="M9307 3310 c-40 -12 -94 -56 -121 -98 -26 -40 -80 -252 -132 -512
-28 -140 -28 -145 -3 -190 40 -71 34 -70 448 -70 l369 0 27 118 c14 64 35 153
46 197 10 44 26 114 35 155 23 111 62 287 78 353 l14 57 -366 -1 c-202 0 -380
-5 -395 -9z m339 -147 c-6 -20 -20 -83 -61 -268 -15 -66 -37 -163 -50 -215
l-23 -95 -159 -3 c-184 -3 -189 -1 -172 64 11 37 20 77 83 368 38 177 24 166
222 166 153 0 165 -1 160 -17z"/>
<path d="M7100 2661 c-44 -24 -80 -72 -87 -116 -4 -28 0 -42 21 -70 l27 -35
444 0 445 0 5 28 c3 15 14 64 25 108 11 45 20 87 20 93 0 8 -122 11 -432 11
-402 -1 -435 -2 -468 -19z"/>
<path d="M11235 3303 c-67 -18 -154 -118 -169 -194 -16 -79 -58 -272 -83 -374
-45 -188 -34 -256 48 -297 30 -15 74 -17 363 -18 355 0 385 3 448 52 68 53 75
73 152 418 14 63 33 145 41 181 26 112 17 155 -40 209 l-27 25 -356 2 c-196 0
-366 -1 -377 -4z m406 -143 c21 -12 25 -44 9 -84 -9 -24 -36 -146 -82 -371
-31 -151 -21 -145 -254 -145 -157 0 -194 3 -204 15 -17 21 -6 83 82 455 29
123 28 120 51 130 31 13 374 12 398 0z"/>
<path d="M13255 3302 c-29 -10 -97 -57 -117 -81 -28 -33 -47 -87 -69 -195 -21
-105 -45 -212 -79 -352 -27 -109 -25 -140 7 -187 45 -65 55 -67 424 -67 303 0
333 2 381 20 84 32 138 101 159 202 18 94 60 280 86 387 34 138 29 189 -21
239 l-36 37 -358 2 c-196 1 -366 -2 -377 -5z m415 -147 c14 -17 10 -48 -36
-255 -52 -233 -74 -315 -91 -327 -12 -9 -71 -13 -209 -13 -225 0 -225 0 -206
83 7 29 25 113 41 187 43 200 52 243 57 268 3 13 16 35 29 48 24 24 27 24 213
24 157 0 192 -3 202 -15z"/>
<path d="M15136 3238 c-9 -40 -23 -102 -30 -138 -29 -143 -48 -228 -66 -295
-10 -38 -22 -90 -25 -115 -4 -25 -18 -88 -31 -140 -13 -52 -24 -102 -24 -112
0 -17 20 -18 353 -18 304 0 360 2 402 17 64 21 142 100 151 152 3 20 14 65 24
101 10 36 21 85 25 110 4 25 17 88 30 140 56 233 55 278 -6 336 l-30 29 -378
3 -377 3 -18 -73z m460 -92 c5 -14 -5 -70 -63 -321 -43 -191 -55 -233 -68
-252 -12 -16 -33 -18 -174 -21 -138 -3 -161 -2 -161 11 0 9 9 55 20 104 11 48
32 140 46 203 14 63 35 154 47 203 l21 87 163 0 c133 0 165 -3 169 -14z"/>
<path d="M2352 1628 c-5 -24 -18 -74 -27 -113 -10 -38 -24 -95 -30 -125 -13
-58 -42 -174 -80 -325 -13 -49 -28 -110 -34 -135 -17 -71 -41 -168 -66 -265
-43 -167 -55 -223 -55 -249 l0 -26 295 0 294 0 10 38 c6 20 58 229 117 465
l106 427 45 0 c39 0 44 -2 38 -17 -4 -10 -13 -47 -20 -83 -14 -62 -27 -116
-76 -300 -13 -47 -26 -103 -30 -125 -6 -39 -25 -115 -75 -300 -13 -49 -24 -93
-24 -98 0 -4 136 -6 302 -5 l302 3 115 463 116 462 44 0 c40 0 43 -2 37 -22
-4 -13 -9 -39 -12 -58 -4 -19 -16 -73 -29 -120 -23 -83 -45 -171 -66 -260 -6
-25 -22 -84 -35 -132 -13 -48 -24 -95 -24 -105 0 -10 -11 -54 -25 -98 -14 -44
-25 -92 -25 -107 l0 -28 300 0 c297 0 300 0 300 21 l0 20 26 -20 c26 -21 36
-21 527 -21 471 0 499 -1 494 -18 -3 -9 -15 -55 -27 -102 -25 -100 -59 -228
-66 -252 -5 -17 14 -18 298 -18 l304 0 48 195 48 195 242 0 c214 0 246 3 281
19 43 20 76 48 99 84 19 29 186 696 186 743 0 49 -32 98 -78 120 -34 18 -75
19 -560 22 l-523 4 -6 -21 c-6 -25 -2 -25 -44 -4 -31 16 -81 18 -520 21 l-487
4 14 51 c24 89 19 141 -17 181 -17 20 -47 40 -67 46 -24 6 -359 10 -943 10
l-906 0 -11 -42z m1846 -64 c12 -8 22 -25 22 -37 0 -12 -57 -253 -127 -534
l-128 -513 -151 0 -151 0 108 438 c60 240 111 447 114 460 l5 22 -195 0 c-107
0 -195 -1 -195 -2 -1 -2 -52 -208 -114 -458 l-113 -455 -151 -3 c-84 -1 -152
1 -152 5 0 5 52 212 114 461 l114 452 -196 -2 -196 -3 -114 -457 -114 -458
-149 0 c-94 0 -149 4 -149 10 0 8 227 926 261 1053 l10 37 812 0 c719 0 815
-2 835 -16z m1068 -305 c18 -20 17 -27 -76 -400 l-95 -379 -431 0 c-416 0
-432 1 -449 20 -17 19 -16 26 25 189 36 146 46 173 72 198 l29 28 282 5 281 5
17 70 c10 39 21 80 24 93 l5 22 -300 0 c-212 0 -300 3 -300 11 0 11 26 121 35
147 3 9 99 12 433 12 421 0 429 0 448 -21z m1128 5 c9 -8 16 -23 16 -32 0 -9
-38 -167 -84 -351 -78 -307 -87 -336 -115 -365 l-31 -31 -280 -3 -280 -3 -7
-27 c-4 -15 -25 -103 -48 -197 l-41 -170 -143 -3 c-80 -1 -148 1 -152 5 -6 6
263 1114 286 1181 3 9 99 12 434 12 377 0 431 -2 445 -16z"/>
<path d="M4552 730 l-20 -80 152 0 152 0 17 73 c10 39 17 75 17 80 0 4 -67 7
-149 7 l-149 0 -20 -80z"/>
<path d="M5775 1098 c-11 -32 -105 -419 -105 -433 0 -13 22 -15 148 -15 l147
0 54 218 c30 119 56 223 59 230 3 9 -30 12 -147 12 -112 0 -153 -3 -156 -12z"/>
<path d="M6855 1633 c-3 -21 -15 -69 -25 -108 -11 -38 -24 -90 -29 -115 -5
-25 -19 -83 -31 -130 -19 -75 -39 -156 -79 -320 -18 -73 -42 -169 -66 -265
-51 -198 -59 -231 -63 -267 l-4 -38 295 0 296 0 9 32 c5 18 26 104 48 190 21
87 41 154 45 150 7 -8 31 -94 91 -329 l11 -43 746 0 746 1 33 43 33 44 44 -44
44 -44 540 0 540 0 6 21 c4 12 10 17 14 12 20 -31 54 -33 577 -33 479 0 528 1
539 17 11 15 14 15 36 0 21 -15 71 -17 486 -17 l462 0 51 66 c47 63 50 65 50
38 0 -21 11 -40 37 -64 l37 -35 471 -3 472 -3 127 169 c69 93 126 172 126 176
0 3 -23 6 -51 6 l-52 0 45 40 c55 48 57 53 108 257 45 182 48 224 21 269 -42
69 86 64 -1697 64 -884 0 -1609 2 -1612 5 -4 3 44 210 64 278 5 16 -14 17
-295 17 l-300 0 -21 -69 c-18 -63 -30 -110 -46 -198 l-7 -33 -253 0 c-236 0
-255 -1 -287 -20 l-35 -21 -35 21 c-33 20 -46 20 -518 18 -266 -2 -492 -7
-501 -11 -15 -8 -15 -2 3 65 24 93 24 135 -1 175 -43 71 -9 68 -657 71 l-582
3 -6 -38z m1156 -72 l24 -19 -64 -257 c-63 -253 -64 -256 -99 -283 -31 -23
-47 -27 -119 -31 -46 -1 -83 -6 -83 -10 0 -3 27 -111 60 -240 33 -129 60 -236
60 -238 0 -2 -58 -3 -128 -3 l-128 0 -76 300 -76 300 118 0 118 0 40 160 40
160 -196 -2 -196 -3 -114 -457 -114 -458 -149 0 c-94 0 -149 4 -149 10 0 8
227 926 261 1053 l10 37 468 0 c447 0 470 -1 492 -19z m2269 9 c0 -8 -227
-926 -261 -1052 l-10 -38 -434 0 -435 0 -14 23 c-14 20 -8 51 70 361 47 186
89 347 95 358 6 10 25 28 42 38 30 18 52 20 302 20 l271 0 28 118 c16 64 33
132 38 150 l9 32 149 0 c95 0 150 -4 150 -10z m-1196 -309 c17 -19 16 -27 -24
-195 -27 -113 -49 -185 -62 -202 -40 -50 -66 -54 -347 -54 l-261 0 -6 -27 c-3
-16 -12 -52 -19 -80 l-13 -53 284 -2 285 -3 -62 -82 -61 -83 -372 0 c-364 0
-373 0 -392 21 -18 20 -17 26 65 357 46 185 90 347 98 360 8 13 28 32 46 42
30 19 53 20 428 20 379 0 397 -1 413 -19z m1646 14 c0 -3 -34 -140 -75 -305
-41 -165 -75 -304 -75 -310 0 -6 54 -10 149 -10 l149 0 78 315 79 315 151 0
152 0 -94 -377 c-52 -208 -97 -388 -99 -401 l-5 -22 -426 0 c-274 0 -432 4
-445 10 -12 7 -19 21 -19 41 0 23 109 478 171 712 l10 37 149 0 c83 0 150 -2
150 -5z m1700 -1 c0 -3 -27 -41 -60 -85 l-61 -79 -243 0 -244 0 -56 -225 c-31
-124 -56 -227 -56 -230 0 -3 128 -5 285 -5 l285 0 -62 -85 -63 -84 -368 -1
c-236 0 -375 4 -388 10 -11 6 -19 21 -19 36 0 19 106 459 161 666 7 26 21 46
47 63 l37 25 402 0 c222 0 403 -3 403 -6z m1121 -4 c27 -15 25 -39 -22 -223
-61 -244 -49 -237 -407 -237 l-258 0 -17 -72 c-10 -40 -17 -76 -17 -80 0 -5
126 -8 280 -8 154 0 280 -3 280 -6 0 -3 -27 -41 -60 -85 l-61 -79 -374 0 -375
0 -14 23 c-13 20 -7 52 68 358 46 184 89 345 95 358 7 12 27 31 44 41 30 19
53 20 425 20 252 0 400 -4 413 -10z m-1137 -225 c-9 -33 -26 -102 -40 -152
-13 -51 -24 -104 -24 -118 l0 -25 -260 0 c-171 0 -260 4 -260 10 0 6 14 67 31
135 l31 125 232 0 232 0 34 45 c18 25 35 44 36 42 1 -1 -4 -29 -12 -62z"/>
<path d="M9551 1073 c-31 -117 -101 -404 -101 -413 0 -6 53 -10 150 -10 l149
0 10 38 c31 116 101 403 101 412 0 6 -53 10 -150 10 l-149 0 -10 -37z"/>
<path d="M8466 1102 c-5 -8 -46 -165 -46 -176 0 -3 67 -6 150 -6 l149 0 10 38
c5 20 16 63 24 95 l15 57 -148 0 c-82 0 -151 -4 -154 -8z"/>
<path d="M12930 1068 c-6 -24 -15 -59 -21 -78 -19 -74 -26 -71 138 -68 l148 3
17 62 c9 35 19 76 23 93 l7 30 -151 0 -150 0 -11 -42z"/>
</g>
</svg>
