<?xml version="1.0" standalone="no"?>
<!DOCTYPE svg PUBLIC "-//W3C//DTD SVG 20010904//EN"
 "http://www.w3.org/TR/2001/REC-SVG-20010904/DTD/svg10.dtd">
<svg version="1.0" xmlns="http://www.w3.org/2000/svg"
 width="213.000000pt" height="237.000000pt" viewBox="0 0 213.000000 237.000000"
 preserveAspectRatio="xMidYMid meet">
<metadata>
Created by potrace 1.15, written by Peter Selinger 2001-2017
</metadata>
<g transform="translate(0.000000,237.000000) scale(0.100000,-0.100000)"
fill="#000000" stroke="none">
<path d="M905 2362 c-42 -3 -54 -6 -40 -12 17 -7 16 -9 -15 -18 -31 -9 -32
-10 -10 -12 l25 -2 -25 -7 c-24 -7 -25 -8 -3 -15 11 -4 24 -14 27 -22 3 -8 2
-12 -4 -9 -13 8 -13 -8 1 -22 6 -6 9 -28 7 -49 -2 -30 -9 -42 -30 -54 -25 -13
-31 -13 -55 0 -15 9 -33 26 -39 38 -6 12 -15 19 -20 14 -4 -4 -2 1 5 11 7 9
10 17 6 17 -10 0 48 46 68 53 9 3 17 11 17 17 0 14 -17 13 -23 -2 -4 -10 -8
-10 -16 1 -7 11 -5 18 6 26 26 19 -12 28 -45 11 -36 -19 -77 -75 -64 -88 6 -6
14 2 21 25 13 39 36 53 58 36 11 -10 11 -15 -3 -30 -10 -11 -13 -19 -8 -19 5
0 1 -5 -9 -11 -9 -5 -22 -7 -27 -4 -7 4 -9 -2 -5 -17 6 -28 -10 -57 -24 -43
-5 6 -11 21 -14 35 -2 14 -5 -17 -6 -67 l-1 -93 170 0 170 0 0 -25 0 -25 -262
0 c-216 -1 -267 -3 -288 -16 -19 -11 -20 -14 -5 -10 44 12 45 -10 3 -42 -40
-31 -65 -42 -54 -23 3 5 -1 14 -9 21 -13 10 -19 4 -40 -41 -14 -30 -22 -62
-19 -73 4 -11 2 -16 -4 -12 -24 15 -29 -179 -7 -285 31 -147 87 -199 217 -199
l76 0 4 103 c5 136 34 193 123 240 37 20 56 22 264 24 219 3 225 3 261 27 65
43 72 70 71 300 0 111 -4 213 -9 226 -12 31 -56 72 -99 94 -30 15 -191 38
-238 34 -11 -1 -47 -4 -80 -6z"/>
<path d="M958 713 c-17 -4 -18 -25 -18 -269 l0 -264 25 0 25 0 0 134 0 134 43
21 c56 27 72 26 102 -4 24 -23 25 -29 25 -155 l0 -130 25 0 25 0 0 141 0 141
-29 29 c-36 36 -97 39 -154 9 l-37 -20 0 120 c0 66 -3 119 -7 119 -5 -1 -16
-3 -25 -6z"/>
<path d="M768 623 c-14 -3 -18 -15 -18 -54 0 -42 -3 -49 -20 -49 -11 0 -20 -7
-20 -15 0 -8 9 -15 20 -15 19 0 20 -7 20 -130 0 -129 0 -131 26 -155 18 -16
39 -25 60 -25 40 0 45 17 9 26 -39 10 -45 32 -45 163 l0 121 35 0 c24 0 35 5
35 15 0 10 -11 15 -35 15 l-35 0 0 55 c0 30 -3 54 -7 54 -5 -1 -16 -3 -25 -6z"/>
<path d="M91 520 c-18 -4 -45 -17 -60 -28 l-26 -19 -3 -223 c-2 -228 -1 -239
36 -240 9 0 12 26 12 95 0 52 3 95 8 95 4 0 25 -7 48 -14 28 -10 52 -12 78 -6
72 16 106 70 106 170 0 136 -76 201 -199 170z m83 -30 c39 -14 56 -59 56 -144
0 -66 -3 -78 -26 -105 -29 -35 -63 -40 -119 -17 l-35 15 0 115 c0 64 1 116 3
116 1 0 20 7 42 15 49 17 48 17 79 5z"/>
<path d="M383 517 c-22 -10 -23 -15 -23 -133 0 -136 9 -168 51 -190 33 -17
104 -18 148 -3 18 6 34 9 37 7 2 -3 1 -27 -3 -53 -8 -61 -37 -92 -92 -101 -30
-5 -41 -11 -41 -24 0 -15 6 -16 46 -9 62 12 110 43 123 81 7 18 11 112 11 229
l0 199 -25 0 -25 0 0 -140 0 -139 -30 -16 c-42 -22 -85 -19 -117 9 -28 24 -28
26 -33 159 l-5 134 -22 -10z"/>
<path d="M1364 516 c-69 -30 -105 -114 -86 -202 19 -91 66 -134 147 -134 89 0
142 54 152 154 14 137 -98 232 -213 182z m127 -52 c20 -21 24 -38 27 -102 3
-68 1 -81 -20 -112 -19 -28 -31 -36 -62 -38 -76 -7 -111 49 -104 165 4 57 8
69 32 89 38 34 94 33 127 -2z"/>
<path d="M1735 521 c-16 -4 -45 -15 -62 -25 l-33 -17 0 -149 0 -150 25 0 25 0
0 146 0 145 35 15 c48 20 70 18 102 -10 28 -24 28 -25 31 -160 l4 -136 24 0
24 0 0 135 c0 154 -10 186 -61 204 -35 12 -69 13 -114 2z"/>
</g>
</svg>
