<?xml version="1.0" standalone="no"?>
<!DOCTYPE svg PUBLIC "-//W3C//DTD SVG 20010904//EN"
 "http://www.w3.org/TR/2001/REC-SVG-20010904/DTD/svg10.dtd">
<svg version="1.0" xmlns="http://www.w3.org/2000/svg"
 width="1246.000000pt" height="981.000000pt" viewBox="0 0 1246.000000 981.000000"
 preserveAspectRatio="xMidYMid meet">
<metadata>
Created by potrace 1.15, written by Peter Selinger 2001-2017
</metadata>
<g transform="translate(0.000000,981.000000) scale(0.100000,-0.100000)"
fill="#000000" stroke="none">
<path d="M8955 8329 c-81 -40 -162 -144 -201 -258 -12 -36 -52 -235 -89 -441
-87 -493 -86 -488 -99 -499 -6 -5 -141 -50 -301 -101 -436 -138 -594 -190
-655 -217 -79 -34 -155 -96 -187 -151 -24 -41 -28 -57 -28 -127 0 -70 4 -87
29 -133 39 -69 139 -162 213 -198 153 -72 569 -254 583 -254 18 0 473 293 478
308 1 5 -147 69 -330 142 -183 73 -337 136 -342 141 -5 4 63 30 150 58 88 28
287 91 443 140 156 49 289 95 296 103 10 10 146 741 163 876 2 17 7 32 11 32
3 0 103 -162 221 -360 146 -245 221 -362 235 -365 11 -3 220 49 465 114 245
66 446 119 447 118 1 -1 -49 -61 -110 -133 -361 -422 -493 -579 -504 -598 -7
-11 -10 -29 -7 -39 3 -10 80 -158 171 -330 91 -172 178 -338 194 -369 l29 -56
-68 19 c-253 72 -592 162 -597 157 -6 -6 65 -433 76 -449 12 -20 686 -219 764
-226 121 -10 235 36 295 118 49 68 63 117 59 208 -5 92 9 63 -296 638 -107
202 -152 297 -146 307 8 15 147 179 502 595 250 293 271 328 271 451 0 124
-69 182 -225 188 -100 4 -39 17 -712 -162 -200 -53 -371 -96 -382 -96 -15 0
-49 49 -137 198 -317 529 -368 602 -456 646 -66 33 -162 35 -223 5z"/>
<path d="M5530 6491 c-133 -41 -222 -156 -222 -290 -1 -174 126 -273 297 -230
40 10 45 15 50 45 3 19 7 50 10 69 3 19 4 35 3 35 -2 0 -21 -9 -43 -20 -75
-38 -148 -22 -180 40 -39 76 1 181 87 226 41 21 110 18 142 -7 15 -12 29 -19
31 -17 2 2 7 33 11 69 l6 66 -32 12 c-37 12 -122 13 -160 2z"/>
<path d="M3450 6238 c-74 -138 -136 -255 -138 -260 -2 -4 27 -8 65 -8 l69 0
27 55 27 55 84 0 85 0 6 -55 7 -55 65 0 c62 0 65 1 60 23 -3 12 -24 129 -48
260 l-43 237 -66 0 -66 0 -134 -252z"/>
<path d="M4102 6243 c-23 -137 -42 -254 -42 -261 0 -9 16 -12 57 -10 l57 3 16
90 15 90 70 5 c77 6 122 25 154 66 44 55 51 155 15 209 -27 42 -72 55 -191 55
l-108 0 -43 -247z"/>
<path d="M4726 6235 c-75 -140 -136 -257 -136 -260 0 -3 31 -5 68 -5 l68 0 27
55 27 55 84 0 84 0 7 -55 6 -55 65 0 c57 0 65 2 60 18 -2 9 -24 126 -48 260
l-43 242 -66 0 -67 0 -136 -255z"/>
<path d="M6020 6483 c0 -9 -77 -446 -86 -485 l-6 -28 61 0 c68 0 57 -18 84
135 l12 70 108 3 c107 3 108 3 103 -20 -3 -13 -10 -52 -16 -88 -6 -36 -13 -73
-16 -82 -5 -16 2 -18 55 -18 l60 0 10 53 c14 69 81 451 81 460 0 4 -26 7 -58
7 l-59 0 -18 -100 -17 -100 -104 0 c-120 0 -112 -9 -89 113 8 43 15 81 15 83
0 2 -27 4 -60 4 -33 0 -60 -3 -60 -7z"/>
<path d="M6740 6243 c-23 -137 -45 -254 -48 -260 -3 -10 30 -13 146 -13 l150
0 6 38 c4 20 9 45 12 55 5 15 -4 17 -86 17 l-92 0 7 33 c14 70 10 67 95 67 86
0 82 -3 95 73 l6 37 -82 0 -81 0 6 31 c3 17 6 38 6 45 0 11 20 14 89 14 98 0
93 -4 106 73 l6 37 -149 0 -148 0 -44 -247z"/>
<path d="M2235 6279 c-265 -29 -479 -171 -638 -421 -109 -170 -122 -397 -34
-581 46 -98 78 -137 334 -418 310 -341 327 -365 328 -464 0 -103 -66 -188
-195 -249 -55 -26 -77 -31 -140 -31 -64 0 -83 4 -129 30 -72 40 -121 98 -172
206 -24 49 -49 88 -55 87 -34 -8 -444 -235 -444 -245 0 -7 17 -54 37 -105 119
-297 319 -431 648 -432 269 -1 480 77 657 243 95 89 153 168 207 282 60 124
76 194 75 329 0 131 -15 196 -70 301 -43 82 -102 153 -279 339 -178 186 -309
333 -346 389 -84 127 33 281 213 281 112 -1 192 -52 273 -174 34 -51 55 -74
65 -70 23 8 409 298 410 308 0 9 -29 47 -118 159 -88 110 -219 195 -342 225
-69 16 -196 21 -285 11z"/>
<path d="M8562 6052 c-155 -101 -244 -164 -247 -177 -3 -11 -66 -486 -140
-1055 -74 -569 -137 -1050 -140 -1068 l-6 -32 238 2 237 3 63 475 c34 261 63
485 65 497 2 15 97 -121 331 -477 232 -353 334 -500 350 -504 37 -10 547 -7
547 3 0 6 -184 268 -408 583 -224 315 -417 587 -429 603 l-21 31 259 272 c142
149 259 280 259 289 0 30 -75 453 -80 453 -3 0 -171 -185 -374 -410 -203 -226
-371 -408 -373 -406 -3 3 115 931 133 1039 4 27 2 37 -8 37 -7 0 -122 -71
-256 -158z"/>
<path d="M3825 5609 c-405 -58 -776 -368 -903 -753 -35 -103 -56 -227 -102
-581 -65 -506 -140 -1081 -145 -1107 l-4 -28 209 0 c115 0 211 3 213 8 3 4 24
156 47 337 24 182 46 333 49 337 4 4 37 -11 73 -33 150 -89 297 -124 492 -116
216 8 417 75 585 195 143 101 300 282 378 437 170 335 141 752 -72 1008 -192
232 -497 342 -820 296z m187 -430 c87 -18 178 -67 239 -129 154 -154 181 -373
72 -600 -70 -146 -251 -291 -419 -335 -118 -31 -252 -14 -364 46 -294 156
-323 564 -60 830 150 151 357 225 532 188z"/>
<path d="M5918 5605 c-566 -93 -993 -634 -937 -1188 35 -348 273 -630 607
-719 120 -32 310 -36 440 -9 99 21 228 63 245 80 7 7 77 496 77 534 0 5 -30
-17 -67 -48 -155 -129 -353 -183 -518 -140 -168 44 -296 172 -340 340 -44 170
22 387 159 529 271 280 706 265 849 -28 15 -31 37 -91 48 -133 34 -136 32
-168 -87 -1060 l-5 -43 210 0 c210 0 211 0 216 23 9 43 105 802 116 921 6 67
9 157 5 201 -25 334 -264 624 -591 720 -113 33 -296 42 -427 20z"/>
<path d="M7613 5555 c-159 -43 -309 -168 -384 -320 -40 -81 -49 -141 -144
-870 -41 -319 -77 -595 -80 -612 l-6 -33 221 0 c121 0 220 2 220 5 0 3 38 296
85 651 63 485 89 654 102 677 41 70 93 86 278 87 l121 0 23 182 c13 100 25
197 28 215 l6 33 -209 -1 c-147 0 -225 -5 -261 -14z"/>
<path d="M9940 3920 c0 -16 7 -20 35 -20 l35 0 0 -90 c0 -89 0 -90 25 -90 25
0 25 1 25 90 l0 90 30 0 c23 0 30 4 30 20 0 19 -7 20 -90 20 -83 0 -90 -1 -90
-20z"/>
<path d="M10160 3831 c0 -104 1 -111 20 -111 18 0 20 7 21 78 l0 77 31 -77
c41 -102 56 -103 95 -5 l28 72 3 -72 c3 -65 5 -73 22 -73 19 0 20 7 20 111 l0
110 -32 -3 c-29 -3 -33 -8 -56 -71 -14 -37 -29 -64 -33 -60 -4 4 -18 35 -31
68 -22 54 -27 60 -56 63 l-32 3 0 -110z"/>
</g>
</svg>
